# xmcd
#
# Track frame offsets: 
#        150
#        15445
#        43866
#        76542
#        114710
#        147921
#        178511
#
# Disc length: 2826 seconds
#
# Revision: 1
# Processed by: cddbd v1.5.1PL2 Copyright (c) Steve Scherf et al.
# Submitted via: ExactAudioCopy v0.95b3
#
DISCID=4e0b0807
DTITLE=Perpetual Motion - Keep On Dancin' (Let's Go) (Positiva Remixed
DTITLE=) [UK]
DYEAR=2003
DGENRE=Trance
TTITLE0=Keep On Dancin' (Let's Go) [Radio Edit]
TTITLE1=Keep On Dancin' (Let's Go) [Banging Club Mix]
TTITLE2=Keep On Dancin' (Let's Go) [Scott Mac Vs. DJ Cams Remix]
TTITLE3=Keep On Dancin' (Let's Go) [Andy Manston's Retro Remix]
TTITLE4=Keep On Dancin' (Let's Go) [Andy Manston's 3am Remix]
TTITLE5=Keep On Dancin' (Let's Go) [Mr. Spring Remix]
TTITLE6=Keep On Dancin' (Let's Go) [Mansa Remix]
EXTD=YEAR: 2003
EXTT0=
EXTT1=
EXTT2=
EXTT3=
EXTT4=
EXTT5=
EXTT6=
PLAYORDER=
